# xmcd CD database file
#
# Track frame offsets:
#	150
#	13746
#	34271
#	50188
#	63474
#	76579
#	89118
#	102237
#	116297
#	130462
#	144131
#	159559
#	176599
#	191010
#	208569
#	223217
#	240736
#	253673
#	266031
#	283028
#	297295
#	313822
#	329102
#
# Disc length: 4592 seconds
#
# Revision: 0
# Processed by: cddbd v1.5.2PL0 Copyright (c) Steve Scherf et al.
# Submitted via: CDex 1.51
#
DISCID=6a11ee17
DTITLE=Various Artist - 03
DYEAR=2007
DGENRE=Country
TTITLE0=Cowboy Up
TTITLE1=Must Be Doin' Somethin' Right
TTITLE2=Down'n' Out
TTITLE3=Back Into My Arms Again
TTITLE4=After All
TTITLE5=Longneck's Cigarettes
TTITLE6=Honey I Do
TTITLE7=When It Rains
TTITLE8=Easy Come,Easy Go
TTITLE9=Tennessee
TTITLE10=Boot Scoot'n Boogie
TTITLE11=Celebrity
TTITLE12=Louisiana Hot Sauce
TTITLE13=Flowers
TTITLE14=Country Club
TTITLE15=Till You Love Me
TTITLE16=The One You Slip Around With
TTITLE17=The Whisky Ain't Workin'
TTITLE18=Drivin' My Life Away-Boggie Bap
TTITLE19=Wanna Be A Hilbilly
TTITLE20=I Don't Feel That Way Anymore
TTITLE21=There Goes My Heart
TTITLE22=One Mississippi
EXTD=YEAR: 2007
EXTT0=
EXTT1=
EXTT2=
EXTT3=
EXTT4=
EXTT5=
EXTT6=
EXTT7=
EXTT8=
EXTT9=
EXTT10=
EXTT11=
EXTT12=
EXTT13=
EXTT14=
EXTT15=
EXTT16=
EXTT17=
EXTT18=
EXTT19=
EXTT20=
EXTT21=
EXTT22=
PLAYORDER=
